<svg enable-background="new 40 0 930 850" xmlns="http://www.w3.org/2000/svg"><g stroke="#000" stroke-miterlimit="10" stroke-width="3"><path d="m515 34.5c64.4-11.3 187.1 22.6 234 99 27 44 3.8 61.3-12 88-16 27-51 42-56 58s-5 16-5 16 4 29 18 41 129 60 154 91 33 37 5 69-139 40-191 63-67 51-36 85 44 38 83 35 50 13 27 49-89.9 39.6-138 27c-42-11-130-56-154-85s-66.4-68.8-36-151c27-73-3.7-109-10.8-127-7.2-18-29.2-16-48.2-38s-17-36 0-56 45-36 27-71 36-175 139-193z" fill="#7f1416" opacity=".2"/><path d="m479 107.6c-12.7-26.2-33-39-76-36s-139 40-169 82-54 106-25 179 62 81 81 88 24 28 29 55 14 49 59 41 75-21 124 35 74 100 160 95 229-60.6 231-173c.8-47-39.4-68.7-58-23-9.1 22.3-29 38-50 38s-69-5-72-34 40.1-128.4 63-185c15.5-38.4 22.5-105-71-84-49 11-94 42-125 49s-31 7-31 7-39 3-49-36-6-67-21-98z" fill="#feda00" opacity=".2"/><path d="m295 279c-32-24-97-60-134 35s-35 198 0 234 84 66 134 73 58.2 1.5 81-15 54 5.9 74 18c20 12 47 3 57-19s10-22 10-22 8-65 116-61 141-23 184-134 5-173-21-209-86-21-59 26-12 79-23 86-42 36-84-18-43-100-91-153-73.8-40.6-99 23c-14.2 35.9-20 86-34 130s-67 39-111 6z" fill="#78c143" opacity=".2"/><path d="m276 510.1c-51.7 15.2-110 52.8-63 135.4s157 182.6 259 125.6 104-90 103-113 46-42 59-46 45-18.3 26-54-59.2-81 5.9-153 78.9-129 0-238-134.8-104.9-160.9-105c-34-.1-102.4 39.1-26 64 30.7 10 50 44 50 63s26.2 70.7-71.1 60c-68.7-7.6-101.9-16.9-145.9-27-83-19-114 36-53 109s136.6 143.9 17 179z" fill="#e7e6aa" opacity=".2"/><path d="m435 682c-22 64 3 145 167.1 129 181.3-17.7 171.7-152.3 172.3-193.6.6-41.4-11.4-63.4-26.4-77.4s-19-48-9-68 28-45-29-63-97.2-16.6-109.2-111c-12.1-94.4-81.8-138-203.8-146s-189 54-189 98 29.2 40.3 62.1 14.7c32.9-25.7 61.9-3.7 78.9 11.3s17 15 17 15 38 44-75 129-150.8 149.6 43.5 151c142.5 1 124.4 41.4 100.5 111z" fill="#283277" opacity=".2"/><path d="m671 655c28.8 42.6 90.8 113.2 198.7-29 74.3-98 37.4-173 14.3-216-7.1-13.3-33-38.2-62-62-20.6-16.9-40-20-62-22s-45 3.7-60.2-25.6c-15.1-29.2-36.8-66.4-90.8-12.4s-98 19-140 3-74.5-52.8-167.8-5.9-122.2 129.9-131.2 169.9 8.8 86 24.9 106 53 33.4 45.4-35c-2.3-21 19-38.8 46.7-53s64-33 81 38-9 138 13 191 80 47 136-29 88.4-115.3 154-18z" fill="#4f53a3" opacity=".2"/><path d="m792 458c48.9 9.6 150 15 106-148s-119-171-202-167-94 22-108 42-23.7 33.2-54.8 30.9c-31.2-2.2-64.7-13.3-67.2 44.5-2.1 47.6 20 80.5-93 127.5s-110.9 148.4-73 269c17.5 55.7 65.7 97 105 112s71-15 38-49-41.1-51.3-22-89.7c19.1-38.2 40-61.2 155 28.8s144.8 70 154 20.9-16.5-111.4-25.2-161.5c-11.8-68.4 53.4-67.1 87.2-60.4z" fill="#ca4b9b" opacity=".2"/></g><g font-family="'Tahoma'"><text fill="#262262" font-size="36" transform="translate(648.4585 112.05)">0</text><text fill="none" font-size="36" stroke="#000" stroke-miterlimit="10" stroke-width=".5" transform="translate(648.4585 112.05)">0</text><text fill="#262262" font-size="10" transform="translate(448.5392 99.0872)">0</text><text fill="none" font-size="10" stroke="#000" stroke-miterlimit="10" stroke-width=".5" transform="translate(448.5392 99.0872)">0</text><text fill="#262262" font-size="10" transform="translate(390.7687 195.0424)">0</text><text fill="none" font-size="10" stroke="#000" stroke-miterlimit="10" stroke-width=".5" transform="translate(390.7687 195.0424)">0</text><text fill="#262262" font-size="10" transform="translate(443.0065 199.5314)">4</text><text fill="none" font-size="10" stroke="#000" stroke-miterlimit="10" stroke-width=".5" transform="translate(443.0065 199.5314)">4</text><text fill="#262262" font-size="10" transform="translate(476.1419 240.4931)">1</text><text fill="none" font-size="10" stroke="#000" stroke-miterlimit="10" stroke-width=".5" transform="translate(476.1419 240.4931)">1</text><text fill="#262262" font-size="10" transform="translate(424.4365 264.1823)">96</text><text fill="none" font-size="10" stroke="#000" stroke-miterlimit="10" stroke-width=".5" transform="translate(424.4365 264.1823)">96</text><text fill="#262262" font-size="10" transform="translate(384.9887 256.1781)">7</text><text fill="none" font-size="10" stroke="#000" stroke-miterlimit="10" stroke-width=".5" transform="translate(384.9887 256.1781)">7</text><text fill="#262262" font-size="10" transform="translate(367.9645 284.4218)">3</text><text fill="none" font-size="10" stroke="#000" stroke-miterlimit="10" stroke-width=".5" transform="translate(367.9645 284.4218)">3</text><text fill="#262262" font-size="10" transform="translate(346.9071 275.1728)">0</text><text fill="none" font-size="10" stroke="#000" stroke-miterlimit="10" stroke-width=".5" transform="translate(346.9071 275.1728)">0</text><text fill="#262262" font-size="10" transform="translate(299.9411 242.4933)">0</text><text fill="none" font-size="10" stroke="#000" stroke-miterlimit="10" stroke-width=".5" transform="translate(299.9411 242.4933)">0</text><text fill="#262262" font-size="10" transform="translate(254.7816 291.8718)">0</text><text fill="none" font-size="10" stroke="#000" stroke-miterlimit="10" stroke-width=".5" transform="translate(254.7816 291.8718)">0</text><text fill="#262262" font-size="10" transform="translate(233.8984 270.1106)">193</text><text fill="none" font-size="10" stroke="#000" stroke-miterlimit="10" stroke-width=".5" transform="translate(233.8984 270.1106)">193</text><text fill="#262262" font-size="10" transform="translate(209.7225 269.1104)">0</text><text fill="none" font-size="10" stroke="#000" stroke-miterlimit="10" stroke-width=".5" transform="translate(209.7225 269.1104)">0</text><text fill="#262262" font-size="10" transform="translate(299.0128 270.1104)">0</text><text fill="none" font-size="10" stroke="#000" stroke-miterlimit="10" stroke-width=".5" transform="translate(299.0128 270.1104)">0</text><text fill="#262262" font-size="10" transform="translate(537.3253 230.9541)">8</text><text fill="none" font-size="10" stroke="#000" stroke-miterlimit="10" stroke-width=".5" transform="translate(537.3253 230.9541)">8</text><text fill="#262262" font-size="10" transform="translate(507.2669 227.0262)">1</text><text fill="none" font-size="10" stroke="#000" stroke-miterlimit="10" stroke-width=".5" transform="translate(507.2669 227.0262)">1</text><text fill="#262262" font-size="10" transform="translate(503.7486 199.5315)">0</text><text fill="none" font-size="10" stroke="#000" stroke-miterlimit="10" stroke-width=".5" transform="translate(503.7486 199.5315)">0</text><text fill="#262262" font-size="10" transform="translate(532.26 209.0705)">25</text><text fill="none" font-size="10" stroke="#000" stroke-miterlimit="10" stroke-width=".5" transform="translate(532.26 209.0705)">25</text><text fill="#262262" font-size="10" transform="translate(736.9608 176.6326)">0</text><text fill="none" font-size="10" stroke="#000" stroke-miterlimit="10" stroke-width=".5" transform="translate(736.9608 176.6326)">0</text><text fill="#262262" font-size="10" transform="translate(730.551 195.0426)">0</text><text fill="none" font-size="10" stroke="#000" stroke-miterlimit="10" stroke-width=".5" transform="translate(730.551 195.0426)">0</text><text fill="#262262" font-size="12" transform="translate(794.5945 295.6925)">0</text><text fill="none" font-size="12" stroke="#000" stroke-miterlimit="10" stroke-width=".5" transform="translate(794.5945 295.6925)">0</text><text fill="#262262" font-size="12" transform="translate(837.7944 402.2477)">0</text><text fill="none" font-size="12" stroke="#000" stroke-miterlimit="10" stroke-width=".5" transform="translate(837.7944 402.2477)">0</text><text fill="#262262" font-size="12" transform="translate(788.5503 477.5615)">0</text><text fill="none" font-size="12" stroke="#000" stroke-miterlimit="10" stroke-width=".5" transform="translate(788.5503 477.5615)">0</text><text fill="#262262" font-size="12" transform="translate(807.0215 556.2225)">0</text><text fill="none" font-size="12" stroke="#000" stroke-miterlimit="10" stroke-width=".5" transform="translate(807.0215 556.2225)">0</text><text fill="#262262" font-size="12" transform="translate(601.9807 727.4918)">0</text><text fill="none" font-size="12" stroke="#000" stroke-miterlimit="10" stroke-width=".5" transform="translate(601.9807 727.4918)">0</text><text fill="#262262" font-size="12" transform="translate(477.5217 741.7651)">0</text><text fill="none" font-size="12" stroke="#000" stroke-miterlimit="10" stroke-width=".5" transform="translate(477.5217 741.7651)">0</text><text fill="#262262" font-size="12" transform="translate(744.7089 659.9883)">0</text><text fill="none" font-size="12" stroke="#000" stroke-miterlimit="10" stroke-width=".5" transform="translate(744.7089 659.9883)">0</text><text fill="#262262" font-size="12" transform="translate(731.6914 295.3453)">0</text><text fill="none" font-size="12" stroke="#000" stroke-miterlimit="10" stroke-width=".5" transform="translate(731.6914 295.3453)">0</text><text fill="#262262" font-size="12" transform="translate(626.518 340.5334)">2</text><text fill="none" font-size="12" stroke="#000" stroke-miterlimit="10" stroke-width=".5" transform="translate(626.518 340.5334)">2</text><text fill="#262262" font-size="12" transform="translate(518.533 284.4216)">44</text><text fill="none" font-size="12" stroke="#000" stroke-miterlimit="10" stroke-width=".5" transform="translate(518.533 284.4216)">44</text><text fill="#262262" font-size="12" transform="translate(396.5053 323.7971)">14</text><text fill="none" font-size="12" stroke="#000" stroke-miterlimit="10" stroke-width=".5" transform="translate(396.5053 323.7971)">14</text><text fill="#262262" font-size="12" transform="translate(652.4215 467.1723)">7</text><text fill="none" font-size="12" stroke="#000" stroke-miterlimit="10" stroke-width=".5" transform="translate(652.4215 467.1723)">7</text><text fill="#262262" font-size="12" transform="translate(567.1579 565.3593)">6</text><text fill="none" font-size="12" stroke="#000" stroke-miterlimit="10" stroke-width=".5" transform="translate(567.1579 565.3593)">6</text><text fill="#262262" font-size="12" transform="translate(423.5045 559.1869)">33</text><text fill="none" font-size="12" stroke="#000" stroke-miterlimit="10" stroke-width=".5" transform="translate(423.5045 559.1869)">33</text><text fill="#262262" font-size="12" transform="translate(356.9921 453.5528)">75</text><text fill="none" font-size="12" stroke="#000" stroke-miterlimit="10" stroke-width=".5" transform="translate(356.9922 453.5523)">75</text><g font-size="10"><text fill="#262262" transform="translate(705.6599 213.4527)">0</text><text fill="none" stroke="#000" stroke-miterlimit="10" stroke-width=".5" transform="translate(705.6599 213.4527)">0</text><text fill="#262262" transform="translate(723.1628 254.1779)">0</text><text fill="none" stroke="#000" stroke-miterlimit="10" stroke-width=".5" transform="translate(723.1628 254.1779)">0</text><text fill="#262262" transform="translate(695.225 279.2825)">0</text><text fill="none" stroke="#000" stroke-miterlimit="10" stroke-width=".5" transform="translate(695.225 279.2825)">0</text><text fill="#262262" transform="translate(674.7654 295.3451)">0</text><text fill="none" stroke="#000" stroke-miterlimit="10" stroke-width=".5" transform="translate(674.7654 295.3451)">0</text><text fill="#262262" transform="translate(700.9166 305.9448)">0</text><text fill="none" stroke="#000" stroke-miterlimit="10" stroke-width=".5" transform="translate(700.9166 305.9448)">0</text><text fill="#262262" transform="translate(684.4779 323.7969)">0</text><text fill="none" stroke="#000" stroke-miterlimit="10" stroke-width=".5" transform="translate(684.4779 323.7969)">0</text><text fill="#262262" transform="translate(717.5524 341.5336)">0</text><text fill="none" stroke="#000" stroke-miterlimit="10" stroke-width=".5" transform="translate(717.5524 341.5336)">0</text><text fill="#262262" transform="translate(693.9127 385.4904)">1</text><text fill="none" stroke="#000" stroke-miterlimit="10" stroke-width=".5" transform="translate(693.9127 385.4904)">1</text><text fill="#262262" transform="translate(664.8901 539.1389)">0</text><text fill="none" stroke="#000" stroke-miterlimit="10" stroke-width=".5" transform="translate(664.8901 539.1389)">0</text><text fill="#262262" transform="translate(513.2603 611.6633)">12</text><text fill="none" stroke="#000" stroke-miterlimit="10" stroke-width=".5" transform="translate(513.2603 611.6633)">12</text><text fill="#262262" transform="translate(481.9143 659.0623)">2</text><text fill="none" stroke="#000" stroke-miterlimit="10" stroke-width=".5" transform="translate(481.9143 659.0623)">2</text><text fill="#262262" transform="translate(459.3622 617.5801)">4</text><text fill="none" stroke="#000" stroke-miterlimit="10" stroke-width=".5" transform="translate(459.3622 617.5801)">4</text><text fill="#262262" transform="translate(431.5811 614.0109)">0</text><text fill="none" stroke="#000" stroke-miterlimit="10" stroke-width=".5" transform="translate(431.5811 614.0109)">0</text><text fill="#262262" transform="translate(316.6974 601.9829)">0</text><text fill="none" stroke="#000" stroke-miterlimit="10" stroke-width=".5" transform="translate(316.6974 601.9829)">0</text><text fill="#262262" transform="translate(372.3744 592.3684)">0</text><text fill="none" stroke="#000" stroke-miterlimit="10" stroke-width=".5" transform="translate(372.3744 592.3684)">0</text><text fill="#262262" transform="translate(405.47 597.9272)">0</text><text fill="none" stroke="#000" stroke-miterlimit="10" stroke-width=".5" transform="translate(405.47 597.9272)">0</text><text fill="#262262" transform="translate(403.4733 621.0323)">0</text><text fill="none" stroke="#000" stroke-miterlimit="10" stroke-width=".5" transform="translate(403.4733 621.0323)">0</text><text fill="#262262" transform="translate(211.937 571.1213)">0</text><text fill="none" stroke="#000" stroke-miterlimit="10" stroke-width=".5" transform="translate(211.937 571.1213)">0</text><text fill="#262262" transform="translate(250.8009 549.2377)">0</text><text fill="none" stroke="#000" stroke-miterlimit="10" stroke-width=".5" transform="translate(250.8009 549.2377)">0</text><text fill="#262262" transform="translate(216.5263 551.238)">1</text><text fill="none" stroke="#000" stroke-miterlimit="10" stroke-width=".5" transform="translate(216.5263 551.238)">1</text><text fill="#262262" transform="translate(258.3145 505.3453)">0</text><text fill="none" stroke="#000" stroke-miterlimit="10" stroke-width=".5" transform="translate(258.3145 505.3453)">0</text><text fill="#262262" transform="translate(290.3276 489.9001)">0</text><text fill="none" stroke="#000" stroke-miterlimit="10" stroke-width=".5" transform="translate(290.3276 489.9001)">0</text><text fill="#262262" transform="translate(327.5847 498.6269)">18</text><text fill="none" stroke="#000" stroke-miterlimit="10" stroke-width=".5" transform="translate(327.5847 498.6269)">18</text><text fill="#262262" transform="translate(290.5976 460.4708)">0</text><text fill="none" stroke="#000" stroke-miterlimit="10" stroke-width=".5" transform="translate(290.5976 460.4708)">0</text><text fill="#262262" transform="translate(245.6787 475.5615)">0</text><text fill="none" stroke="#000" stroke-miterlimit="10" stroke-width=".5" transform="translate(245.6787 475.5615)">0</text><text fill="#262262" transform="translate(308.7291 444.4151)">1</text><text fill="none" stroke="#000" stroke-miterlimit="10" stroke-width=".5" transform="translate(308.7291 444.4151)">1</text><text fill="#262262" transform="translate(299.7219 419.0425)">1</text><text fill="none" stroke="#000" stroke-miterlimit="10" stroke-width=".5" transform="translate(299.7219 419.0425)">1</text><text fill="#262262" transform="translate(342.3145 385.231)">10</text><text fill="none" stroke="#000" stroke-miterlimit="10" stroke-width=".5" transform="translate(342.3145 385.231)">10</text><text fill="#262262" transform="translate(293.4025 340.5336)">0</text><text fill="none" stroke="#000" stroke-miterlimit="10" stroke-width=".5" transform="translate(293.4025 340.5336)">0</text><text fill="#262262" transform="translate(321.6558 288.3495)">0</text><text fill="none" stroke="#000" stroke-miterlimit="10" stroke-width=".5" transform="translate(321.6558 288.3495)">0</text><text fill="#262262" transform="translate(338.4163 329.4335)">0</text><text fill="none" stroke="#000" stroke-miterlimit="10" stroke-width=".5" transform="translate(338.4163 329.4335)">0</text><text fill="#262262" transform="translate(349.836 301.9386)">0</text><text fill="none" stroke="#000" stroke-miterlimit="10" stroke-width=".5" transform="translate(349.836 301.9386)">0</text><text fill="#262262" transform="translate(255.5655 376.2531)">0</text><text fill="none" stroke="#000" stroke-miterlimit="10" stroke-width=".5" transform="translate(255.5655 376.2531)">0</text><text fill="#262262" transform="translate(314.3364 475.5614)">1</text><text fill="none" stroke="#000" stroke-miterlimit="10" stroke-width=".5" transform="translate(314.3364 475.5614)">1</text><text fill="#262262" transform="translate(306.0653 545.871)">2</text><text fill="none" stroke="#000" stroke-miterlimit="10" stroke-width=".5" transform="translate(306.0653 545.871)">2</text><text fill="#262262" transform="translate(372.4756 533.3319)">6</text><text fill="none" stroke="#000" stroke-miterlimit="10" stroke-width=".5" transform="translate(372.4756 533.3319)">6</text><text fill="#262262" transform="translate(445.9556 707.9451)">0</text><text fill="none" stroke="#000" stroke-miterlimit="10" stroke-width=".5" transform="translate(445.9556 707.9451)">0</text><text fill="#262262" transform="translate(435.7416 751.1334)">0</text><text fill="none" stroke="#000" stroke-miterlimit="10" stroke-width=".5" transform="translate(435.7416 751.1334)">0</text><text fill="#262262" transform="translate(334.3181 660.9879)">0</text><text fill="none" stroke="#000" stroke-miterlimit="10" stroke-width=".5" transform="translate(334.3181 660.9879)">0</text><text fill="#262262" transform="translate(382.0356 632.3353)">0</text><text fill="none" stroke="#000" stroke-miterlimit="10" stroke-width=".5" transform="translate(382.0356 632.3353)">0</text><text fill="#262262" transform="translate(419.0564 671.6184)">0</text><text fill="none" stroke="#000" stroke-miterlimit="10" stroke-width=".5" transform="translate(419.0564 671.6184)">0</text><text fill="#262262" transform="translate(425.7555 638.9883)">0</text><text fill="none" stroke="#000" stroke-miterlimit="10" stroke-width=".5" transform="translate(425.7555 638.9883)">0</text><text fill="#262262" transform="translate(426.4396 729.4913)">7</text><text fill="none" stroke="#000" stroke-miterlimit="10" stroke-width=".5" transform="translate(426.4396 729.4913)">7</text><text fill="#262262" transform="translate(528.1312 694.2296)">0</text><text fill="none" stroke="#000" stroke-miterlimit="10" stroke-width=".5" transform="translate(528.1312 694.2296)">0</text><text fill="#262262" transform="translate(552.8036 639.442)">4</text><text fill="none" stroke="#000" stroke-miterlimit="10" stroke-width=".5" transform="translate(552.8036 639.442)">4</text><text fill="#262262" transform="translate(572.0562 620.0319)">4</text><text fill="none" stroke="#000" stroke-miterlimit="10" stroke-width=".5" transform="translate(572.0562 620.0319)">4</text><text fill="#262262" transform="translate(677.3513 605.9897)">0</text><text fill="none" stroke="#000" stroke-miterlimit="10" stroke-width=".5" transform="translate(677.3513 605.9897)">0</text><text fill="#262262" transform="translate(702.847 691.7303)">0</text><text fill="none" stroke="#000" stroke-miterlimit="10" stroke-width=".5" transform="translate(702.847 691.7303)">0</text><text fill="#262262" transform="translate(632.9301 685.5936)">0</text><text fill="none" stroke="#000" stroke-miterlimit="10" stroke-width=".5" transform="translate(632.9301 685.5936)">0</text><text fill="#262262" transform="translate(650.1468 662.9885)">0</text><text fill="none" stroke="#000" stroke-miterlimit="10" stroke-width=".5" transform="translate(650.1468 662.9885)">0</text><text fill="#262262" transform="translate(628.2321 638.4418)">0</text><text fill="none" stroke="#000" stroke-miterlimit="10" stroke-width=".5" transform="translate(628.2321 638.4418)">0</text><text fill="#262262" transform="translate(595.8573 637.4423)">0</text><text fill="none" stroke="#000" stroke-miterlimit="10" stroke-width=".5" transform="translate(595.8573 637.4423)">0</text><text fill="#262262" transform="translate(607.873 615.0109)">2</text><text fill="none" stroke="#000" stroke-miterlimit="10" stroke-width=".5" transform="translate(607.873 615.0109)">2</text><text fill="#262262" transform="translate(623.2335 594.3693)">3</text><text fill="none" stroke="#000" stroke-miterlimit="10" stroke-width=".5" transform="translate(623.2335 594.3693)">3</text><text fill="#262262" transform="translate(727.3839 700.7721)">0</text><text fill="none" stroke="#000" stroke-miterlimit="10" stroke-width=".5" transform="translate(727.3839 700.7721)">0</text><text fill="#262262" transform="translate(695.2451 662.9887)">0</text><text fill="none" stroke="#000" stroke-miterlimit="10" stroke-width=".5" transform="translate(695.2451 662.9887)">0</text><text fill="#262262" transform="translate(752.0897 405.5741)">0</text><text fill="none" stroke="#000" stroke-miterlimit="10" stroke-width=".5" transform="translate(752.0897 405.5741)">0</text><text fill="#262262" transform="translate(715.6959 447.4151)">3</text><text fill="none" stroke="#000" stroke-miterlimit="10" stroke-width=".5" transform="translate(715.6959 447.4151)">3</text><text fill="#262262" transform="translate(751.5219 471.9618)">0</text><text fill="none" stroke="#000" stroke-miterlimit="10" stroke-width=".5" transform="translate(751.5219 471.9618)">0</text><text fill="#262262" transform="translate(733.7444 494.9507)">0</text><text fill="none" stroke="#000" stroke-miterlimit="10" stroke-width=".5" transform="translate(733.7444 494.9507)">0</text><text fill="#262262" transform="translate(736.94 596.9269)">0</text><text fill="none" stroke="#000" stroke-miterlimit="10" stroke-width=".5" transform="translate(736.94 596.9269)">0</text><text fill="#262262" transform="translate(711.6599 531.2129)">0</text><text fill="none" stroke="#000" stroke-miterlimit="10" stroke-width=".5" transform="translate(711.6599 531.2129)">0</text><text fill="#262262" transform="translate(702.194 500.2031)">0</text><text fill="none" stroke="#000" stroke-miterlimit="10" stroke-width=".5" transform="translate(702.194 500.2031)">0</text><text fill="#262262" transform="translate(719.033 470.9617)">0</text><text fill="none" stroke="#000" stroke-miterlimit="10" stroke-width=".5" transform="translate(719.033 470.9617)">0</text><text fill="#262262" transform="translate(808.0912 434.026)">0</text><text fill="none" stroke="#000" stroke-miterlimit="10" stroke-width=".5" transform="translate(808.0912 434.026)">0</text><text fill="#262262" transform="translate(836.9436 453.5518)">1</text><text fill="none" stroke="#000" stroke-miterlimit="10" stroke-width=".5" transform="translate(836.9436 453.5518)">1</text><text fill="#262262" transform="translate(805.1348 503.2031)">0</text><text fill="none" stroke="#000" stroke-miterlimit="10" stroke-width=".5" transform="translate(805.1348 503.2031)">0</text><text fill="#262262" transform="translate(771.8241 358.479)">0</text><text fill="none" stroke="#000" stroke-miterlimit="10" stroke-width=".5" transform="translate(771.8241 358.479)">0</text><text fill="#262262" transform="translate(861.7782 443.2768)">0</text><text fill="none" stroke="#000" stroke-miterlimit="10" stroke-width=".5" transform="translate(861.7782 443.2768)">0</text><text fill="#262262" transform="translate(649.828 236.3257)">0</text><text fill="none" stroke="#000" stroke-miterlimit="10" stroke-width=".5" transform="translate(649.828 236.3257)">0</text><text fill="#262262" transform="translate(568.0373 218.5893)">0</text><text fill="none" stroke="#000" stroke-miterlimit="10" stroke-width=".5" transform="translate(568.0373 218.5893)">0</text><text fill="#262262" transform="translate(589.4036 260.4855)">0</text><text fill="none" stroke="#000" stroke-miterlimit="10" stroke-width=".5" transform="translate(589.4036 260.4855)">0</text><text fill="#262262" transform="translate(640.0083 279.2827)">0</text><text fill="none" stroke="#000" stroke-miterlimit="10" stroke-width=".5" transform="translate(640.0083 279.2827)">0</text></g><text fill="#262262" font-size="12" transform="translate(418.3104 125.5554)">0</text><text fill="none" font-size="12" stroke="#000" stroke-miterlimit="10" stroke-width=".5" transform="translate(418.3104 125.5554)">0</text><text fill="#262262" font-size="12" transform="translate(311.6994 191.6759)">0</text><text fill="none" font-size="12" stroke="#000" stroke-miterlimit="10" stroke-width=".5" transform="translate(311.6994 191.6759)">0</text><text fill="#262262" font-size="12" transform="translate(211.3379 310.0757)">0</text><text fill="none" font-size="12" stroke="#000" stroke-miterlimit="10" stroke-width=".5" transform="translate(211.3379 310.0757)">0</text><text fill="#262262" font-size="12" transform="translate(211.7449 433.026)">0</text><text fill="none" font-size="12" stroke="#000" stroke-miterlimit="10" stroke-width=".5" transform="translate(211.7449 433.026)">0</text><text fill="#262262" font-size="12" transform="translate(252.3274 594.3689)">0</text><text fill="none" font-size="12" stroke="#000" stroke-miterlimit="10" stroke-width=".5" transform="translate(252.3274 594.3689)">0</text><text fill="#262262" font-size="12" transform="translate(453.2006 146.7548)">0</text><text fill="none" font-size="12" stroke="#000" stroke-miterlimit="10" stroke-width=".5" transform="translate(453.2006 146.7548)">0</text><text fill="#262262" font-size="12" transform="translate(497.5778 164.7228)">0</text><text fill="none" font-size="12" stroke="#000" stroke-miterlimit="10" stroke-width=".5" transform="translate(497.5778 164.7228)">0</text><text fill="#262262" font-size="12" transform="translate(574.0994 127.5555)">0</text><text fill="none" font-size="12" stroke="#000" stroke-miterlimit="10" stroke-width=".5" transform="translate(574.0994 127.5555)">0</text><text fill="#262262" font-size="12" transform="translate(689.8556 169.7229)">0</text><text fill="none" font-size="12" stroke="#000" stroke-miterlimit="10" stroke-width=".5" transform="translate(689.8556 169.7229)">0</text><text fill="#262262" font-size="12" transform="translate(619.3986 186.4593)">0</text><text fill="none" font-size="12" stroke="#000" stroke-miterlimit="10" stroke-width=".5" transform="translate(619.3986 186.4593)">0</text><text fill="#262262" font-size="12" transform="translate(513.0342 139.8288)">0</text><text fill="none" font-size="12" stroke="#000" stroke-miterlimit="10" stroke-width=".5" transform="translate(513.0342 139.8288)">0</text><text fill="#262262" font-size="10" transform="translate(456.6347 115.457)">0</text><text fill="none" font-size="10" stroke="#000" stroke-miterlimit="10" stroke-width=".5" transform="translate(456.6347 115.457)">0</text><text fill="#262262" font-size="36" transform="translate(347.049 134.3825)">0</text><text fill="none" font-size="36" stroke="#000" stroke-miterlimit="10" stroke-width=".5" transform="translate(347.049 134.3825)">0</text><text fill="#262262" font-size="36" transform="translate(170.6681 359.0506)">0</text><text fill="none" font-size="36" stroke="#000" stroke-miterlimit="10" stroke-width=".5" transform="translate(170.6681 359.0506)">0</text><text fill="#262262" font-size="36" transform="translate(268.5263 690.7299)">0</text><text fill="none" font-size="36" stroke="#000" stroke-miterlimit="10" stroke-width=".5" transform="translate(268.5263 690.7299)">0</text><text fill="#262262" font-size="36" transform="translate(542.7615 795.7754)">0</text><text fill="none" font-size="36" stroke="#000" stroke-miterlimit="10" stroke-width=".5" transform="translate(542.7615 795.7754)">0</text><text fill="#262262" font-size="36" transform="translate(812.2908 646.3877)">0</text><text fill="none" font-size="36" stroke="#000" stroke-miterlimit="10" stroke-width=".5" transform="translate(812.2908 646.3877)">0</text><text fill="#262262" font-size="36" transform="translate(857.6548 343.658)">0</text><text fill="none" font-size="36" stroke="#000" stroke-miterlimit="10" stroke-width=".5" transform="translate(857.6548 343.658)">0</text><text fill="#fff" font-size="36" transform="translate(454.9164 442.2776)">553</text><text fill="none" font-size="36" stroke="#000" stroke-miterlimit="10" stroke-width=".5" transform="translate(454.9164 442.2776)">553</text><text fill="#262262" font-size="24" transform="translate(682.12 54.5105)">A. thaliana Total</text><text fill="none" font-size="24" stroke="#000" stroke-miterlimit="10" stroke-width=".5" transform="translate(682.12 54.5105)">A. thaliana Total</text><text fill="#262262" font-size="24" transform="translate(803.7157 154.723)">S. pombe Total</text><text fill="none" font-size="24" stroke="#000" stroke-miterlimit="10" stroke-width=".5" transform="translate(803.7157 154.723)">S. pombe Total</text><text fill="#262262" font-size="24" transform="translate(821.4679 716.405)">S. cerevisiae Total</text><text fill="none" font-size="24" stroke="#000" stroke-miterlimit="10" stroke-width=".5" transform="translate(821.4679 716.405)">S. cerevisiae Total</text><text fill="#262262" font-size="24" transform="translate(662.3279 829.1023)">H. sapiens Total</text><text fill="none" font-size="24" stroke="#000" stroke-miterlimit="10" stroke-width=".5" transform="translate(662.3279 829.1023)">H. sapiens Total</text><text fill="#262262" font-size="24" transform="translate(114.6655 751.1335)">D. rerio Total</text><text fill="none" font-size="24" stroke="#000" stroke-miterlimit="10" stroke-width=".5" transform="translate(114.6655 751.1335)">D. rerio Total</text><text fill="#262262" font-size="21" transform="translate(48.9135 266.1099)">D. melanogaster Total</text><text fill="none" font-size="21" stroke="#000" stroke-miterlimit="10" stroke-width=".5" transform="translate(48.9135 266.1099)">D. melanogaster Total</text><text fill="#262262" font-size="24" transform="translate(216.3187 78.1724)">C. elegans Total</text><text fill="none" font-size="24" stroke="#000" stroke-miterlimit="10" stroke-width=".5" transform="translate(216.3187 78.1724)">C. elegans Total</text></g></svg>